<?xml version="1.0" standalone="no"?>
<!DOCTYPE svg PUBLIC "-//W3C//DTD SVG 20010904//EN"
 "http://www.w3.org/TR/2001/REC-SVG-20010904/DTD/svg10.dtd">
<svg version="1.0" xmlns="http://www.w3.org/2000/svg"
 width="128.000000pt" height="128.000000pt" viewBox="0 0 128.000000 128.000000"
 preserveAspectRatio="xMidYMid meet">
<metadata>
Created by potrace 1.11, written by Peter Selinger 2001-2013
</metadata>
<g transform="translate(0.000000,128.000000) scale(0.100000,-0.100000)"
fill="#000000" stroke="none">
<path d="M500 1255 c-216 -54 -381 -203 -458 -417 -24 -65 -27 -87 -27 -203 0
-116 3 -138 27 -203 36 -101 82 -173 154 -246 73 -72 145 -118 246 -154 65
-23 88 -26 203 -26 115 0 138 3 203 26 100 36 172 81 244 154 120 119 176 247
185 419 16 301 -175 563 -466 644 -81 22 -234 25 -311 6z"/>
</g>
</svg>
